<?xml version="1.0" encoding="UTF-8"?>
<svg width="104px" height="25px" viewBox="0 0 104 25" version="1.1" xmlns="http://www.w3.org/2000/svg" xmlns:xlink="http://www.w3.org/1999/xlink">
    <!-- Generator: Sketch 52.2 (67145) - http://www.bohemiancoding.com/sketch -->
    <title>Site logo（light）</title>
    <desc>Created with Sketch.</desc>
    <defs>
        <linearGradient x1="99.4770227%" y1="2.10940706%" x2="-448.006303%" y2="186.624009%" id="linearGradient-1">
            <stop stop-color="#FFFFFF" offset="0%"></stop>
            <stop stop-color="#FFFFFF" offset="100%"></stop>
        </linearGradient>
        <polygon id="path-2" points="1.12036909e-13 0 22 12.5 1.12036909e-13 12.5"></polygon>
        <linearGradient x1="99.4770227%" y1="2.10940706%" x2="1.74986665%" y2="98.9114425%" id="linearGradient-3">
            <stop stop-color="#FFFFFF" offset="0%"></stop>
            <stop stop-color="#FFFFFF" offset="100%"></stop>
        </linearGradient>
    </defs>
    <g id="Page-1" stroke="none" stroke-width="1" fill="none" fill-rule="evenodd">
        <g id="Home-Page-" transform="translate(-120.000000, -27.000000)">
            <g id="Navi">
                <g id="Site-logo（light）" transform="translate(120.000000, 27.000000)">
                    <g id="Tri">
                        <g id="Group">
                            <g id="Rectangle-5">
                                <use fill="url(#linearGradient-1)" xlink:href="#path-2"></use>
                                <use fill-opacity="0.313434103" fill="#FFFFFF" xlink:href="#path-2"></use>
                            </g>
                            <polygon id="Rectangle-5-Copy" fill="url(#linearGradient-3)" opacity="0.530343192" transform="translate(11.000000, 18.750000) scale(1, -1) translate(-11.000000, -18.750000) " points="0 12.5 22 25 0 25"></polygon>
                        </g>
                    </g>
                    <path d="M93.9343182,15.5095715 C94.0879851,14.4831699 94.5085749,13.5706101 95.1960938,12.771875 C96.0164104,11.8213494 96.9083285,11.3460938 97.871875,11.3460938 C98.262502,11.3460938 98.6173161,11.443749 98.9363281,11.6390625 C99.2553401,11.834376 99.5580715,12.1468729 99.8445313,12.5765625 L100.176563,11.3460938 L101.797656,11.3460938 L100.782031,15.4671875 C100.690885,15.7898616 100.612761,16.1350629 100.547656,16.5028015 C100.482552,16.8705402 100.45,17.1254103 100.45,17.2674194 C100.45,17.5125785 100.528124,17.6351563 100.684375,17.6351563 C100.892709,17.6351563 101.234503,17.4448302 101.709766,17.0641724 C102.185028,16.6835145 102.741663,16.1577019 103.379688,15.4867188 L103.379688,17.1383301 C101.869263,18.524242 100.684379,19.2171875 99.825,19.2171875 C99.4213521,19.2171875 99.1511726,19.065771 99.0144531,18.7629333 C98.8777337,18.4600957 98.809375,18.1025859 98.809375,17.6903931 L98.809375,17.3617188 C98.1843719,18.0518264 97.6667989,18.5335924 97.2566406,18.8070313 C96.8464823,19.0804701 96.4460957,19.2171875 96.0554688,19.2171875 C95.4695283,19.2171875 94.9584657,18.9404976 94.5222656,18.3871094 C94.2353354,18.0230934 94.0427772,17.6154176 93.9445892,17.1640765 C93.0967224,17.9480036 92.3060858,18.5145705 91.5726563,18.8637939 C91.0518203,19.1124117 90.6026061,19.2367188 90.225,19.2367188 C89.7302059,19.2367188 89.3363296,18.978034 89.0433594,18.4606567 C88.7503892,17.9432795 88.6039063,17.2589805 88.6039063,16.4077393 C88.6039063,15.8706272 88.636458,15.4187172 88.7015625,15.0519958 C88.766667,14.6852745 88.9229154,14.0565678 89.1703125,13.1658569 L89.3265625,12.5765625 L88.7210938,12.6742188 L88.7992188,11.9192139 C88.8122396,11.8191157 88.9066397,11.7502993 89.0824219,11.7127625 C89.258204,11.6752256 89.4567697,11.6376385 89.678125,11.6 L91.1258789,7.24453125 L92.7692505,7.2463623 L91.3950439,11.4495483 L93.19375,11.44375 L92.959375,12.5765625 L90.9671875,12.5765625 L90.8695313,12.9110352 C90.6872387,13.5801873 90.5505213,14.1739008 90.459375,14.6921936 C90.3682287,15.2104864 90.3226563,15.6663636 90.3226563,16.0598389 C90.3226563,17.1881811 90.5179668,17.7523438 90.9085938,17.7523438 C91.1169281,17.7523438 91.4684871,17.5816505 91.9632813,17.2402588 C92.5638652,16.8277567 93.2208712,16.2508665 93.9343182,15.5095715 Z M81.9113434,17.178012 C79.9310577,18.5895527 78.0080246,19.2953125 76.1421875,19.2953125 C75.4520799,19.2953125 74.9279966,19.0121122 74.5699219,18.4457031 C74.2118472,17.879294 74.0328125,17.2380244 74.0328125,16.521875 C74.0328125,15.1025971 74.4559854,13.842844 75.3023438,12.7425781 C76.1487021,11.6423122 77.1252549,11.0921875 78.2320313,11.0921875 C79.2737031,11.0921875 79.7945313,11.5869742 79.7945313,12.5765625 C79.7945313,13.4619836 79.3388066,14.2367154 78.4273438,14.9007813 C77.9455705,15.2523455 77.1643283,15.649477 76.0835938,16.0921875 L75.6734375,16.2679688 L75.6734375,16.3460938 C75.6734375,16.7888043 75.7450514,17.1468736 75.8882813,17.4203125 C76.0966156,17.8239604 76.4286436,18.0257813 76.884375,18.0257813 C77.6656289,18.0257813 78.4533814,17.8272155 79.2476563,17.4300781 C80.0279362,17.0399381 80.9212978,16.4079102 81.927767,15.533976 C82.0469208,14.3486988 82.3678719,12.9267044 82.890625,11.2679688 C83.6197953,8.96326973 84.4010375,7.35521289 85.234375,6.44375 C85.7031273,5.98801855 86.1718727,5.76015625 86.640625,5.76015625 C87.0182311,5.76015625 87.3372383,5.92617021 87.5976563,6.25820313 C87.8580742,6.59023604 87.9882813,7.00364336 87.9882813,7.4984375 C87.9882813,8.24062871 87.7734396,9.06744336 87.34375,9.97890625 C86.9791648,10.7601602 86.4322953,11.6520783 85.703125,12.6546875 C85.1822891,13.3838578 84.4791711,14.275776 83.59375,15.3304688 L83.4960938,16.521875 C83.4960938,17.4593797 83.8020803,17.928125 84.4140625,17.928125 C84.9348984,17.928125 85.5924439,17.7002627 86.3867188,17.2445313 C87.1809936,16.7887998 87.9101529,16.2028682 88.5742188,15.4867188 L88.5742188,17.146875 C87.5716096,17.915108 86.7057328,18.4587224 85.9765625,18.7777344 C85.2473922,19.0967464 84.5312535,19.25625 83.828125,19.25625 C83.1249965,19.25625 82.6106787,18.9697945 82.2851563,18.396875 C82.0931128,18.0676576 81.968509,17.6613721 81.9113434,17.178012 Z M51.7787717,17.1891707 C50.2948433,18.5411886 49.1284933,19.2171875 48.2796875,19.2171875 C47.8760396,19.2171875 47.6058601,19.065771 47.4691406,18.7629333 C47.3324212,18.4600957 47.2640625,18.1025859 47.2640625,17.6903931 L47.2640625,17.3617188 C46.6390594,18.0518264 46.1214864,18.5335924 45.7113281,18.8070313 C45.3011698,19.0804701 44.9007832,19.2171875 44.5101563,19.2171875 C43.9242158,19.2171875 43.4131532,18.9404976 42.9769531,18.3871094 C42.7508819,18.1003026 42.583395,17.7863926 42.4744915,17.4453769 C41.8410663,17.9452897 41.2076465,18.3535986 40.5742188,18.6703125 C39.8190066,19.0479186 39.1744818,19.2367188 38.640625,19.2367188 C38.3020816,19.2367188 38.0286469,19.0837255 37.8203125,18.7777344 C37.6119781,18.4717433 37.5078125,18.0648463 37.5078125,17.5570313 C37.5078125,16.7497355 37.6966127,15.7666725 38.0742188,14.6078125 C38.4518248,13.4489525 38.8326804,12.2803444 39.2167969,11.1019531 C39.6009134,9.92356182 39.7929688,8.93724355 39.7929688,8.14296875 C39.7929688,7.6872373 39.6888031,7.459375 39.4804688,7.459375 C39.0638,7.459375 38.3476613,8.17673436 37.3320313,9.61147461 C36.3945266,10.9286199 35.8606777,11.8219622 35.7304688,12.2915283 L34.2460938,17.7889648 C34.0638012,18.4672723 33.9205734,18.8781365 33.8164063,19.0215698 C33.7122391,19.1650032 33.5104182,19.2367188 33.2109375,19.2367188 C32.8203105,19.2367188 32.5533861,19.2041161 32.4101562,19.1389099 C32.2669264,19.0737037 32.1953125,18.9432424 32.1953125,18.747522 C32.1953125,18.5650259 32.2734367,18.1966316 32.4296875,17.6423279 C32.5859383,17.0880242 32.7812488,16.4782382 33.015625,15.8129517 C33.4453146,14.6783024 33.8359357,13.4523219 34.1875,12.1349731 C34.6041687,10.5960657 34.8125,9.45492315 34.8125,8.71151123 C34.8125,7.87674957 34.682293,7.459375 34.421875,7.459375 C34.0182271,7.459375 33.4322955,8.08538599 32.6640625,9.33742676 C31.9869758,10.4199924 31.4270855,11.5416039 30.984375,12.7022949 C30.6718734,13.5240357 30.3007834,14.6979335 29.8710938,16.2240234 C29.6757803,16.9544145 29.5130215,17.5087099 29.3828125,17.8869263 C29.1614572,18.5389884 28.9791674,18.9367302 28.8359375,19.0801636 C28.7838539,19.1454715 28.7252607,19.1846354 28.6601562,19.1976563 C28.5559891,19.223698 28.4127613,19.2367188 28.2304688,19.2367188 C27.9049463,19.2367188 27.6901047,19.2041161 27.5859375,19.1389099 C27.4817703,19.0737037 27.4296875,18.9433441 27.4296875,18.7478271 C27.4296875,18.4870023 27.5273428,18.0370759 27.7226562,17.3980347 C27.878907,16.8894058 28.0937486,16.2633948 28.3671875,15.5199829 L28.5625,14.9135986 C28.9661479,13.8182156 29.246093,12.9119034 29.4023438,12.194635 C29.5585945,11.4773666 29.6367188,10.7731805 29.6367188,10.0820557 C29.6367188,9.46925963 29.5683601,8.84660554 29.4316406,8.21407471 C29.2949212,7.58154388 29.1223969,7.05664678 28.9140625,6.63936768 L28.8359375,6.42421875 C28.8359375,6.37355932 29.0345032,6.25021867 29.4316406,6.05419312 C29.828778,5.85816756 30.0664059,5.76015625 30.1445312,5.76015625 C30.3138029,5.76015625 30.5123687,6.09218418 30.7402344,6.75625 C30.9681001,7.42031582 31.0820313,8.21457871 31.0820313,9.1390625 L31.0234375,10.1351563 C31.5833361,8.88515 32.247392,7.84349375 33.015625,7.01015625 C33.783858,6.17681875 34.4674449,5.76015625 35.0664063,5.76015625 C35.4309914,5.76015625 35.7239572,5.98801855 35.9453125,6.44375 C36.1666678,6.89948145 36.2773438,7.51145449 36.2773438,8.2796875 C36.2773438,8.55312637 36.2382816,8.99583027 36.1601563,9.6078125 C36.9023475,8.37082715 37.6054654,7.42031582 38.2695313,6.75625 C38.9335971,6.09218418 39.5195287,5.76015625 40.0273438,5.76015625 C40.4049498,5.76015625 40.7174467,5.9815082 40.9648438,6.42421875 C41.2122408,6.8669293 41.3359375,7.42681953 41.3359375,8.10390625 C41.3359375,8.83307656 41.215496,9.70546367 40.9746094,10.7210938 C40.7337228,11.7367238 40.3593775,12.9346285 39.8515625,14.3148438 C39.6822908,14.796617 39.519532,15.3109348 39.3632813,15.8578125 C39.1679678,16.5218783 39.0703125,16.9645822 39.0703125,17.1859375 C39.0703125,17.3421883 39.1028643,17.4593746 39.1679688,17.5375 C39.2330732,17.6156254 39.3242182,17.6546875 39.4414063,17.6546875 C39.8320332,17.6546875 40.3854131,17.4268252 41.1015625,16.9710938 C41.5100503,16.7111469 41.9218434,16.3850109 42.336948,15.9926803 C42.4192681,14.7674119 42.8572093,13.6938189 43.6507813,12.771875 C44.4710979,11.8213494 45.363016,11.3460938 46.3265625,11.3460938 C46.7171895,11.3460938 47.0720036,11.443749 47.3910156,11.6390625 C47.7100276,11.834376 48.012759,12.1468729 48.2992188,12.5765625 L48.63125,11.3460938 L50.2523438,11.3460938 L49.2367188,15.4671875 C49.1455725,15.7898616 49.0674482,16.1350629 49.0023438,16.5028015 C48.9372393,16.8705402 48.9046875,17.1254103 48.9046875,17.2674194 C48.9046875,17.5125785 48.9828117,17.6351563 49.1390625,17.6351563 C49.3473969,17.6351563 49.6891903,17.4448302 50.1644531,17.0641724 C50.623558,16.6964561 51.1585962,16.1932872 51.7695828,15.5546514 C51.9195706,14.5093313 52.3427039,13.5882555 53.0389893,12.7914063 C53.8611369,11.8539016 54.7419671,11.3851563 55.6815063,11.3851563 C56.0601297,11.3851563 56.3962266,11.4765555 56.6898071,11.6593567 C56.9833877,11.8421579 57.3063622,12.1620298 57.6587402,12.6189819 L59.3729126,6.03572998 L60.9744751,6.03359375 L58.9542114,13.94375 C58.7458771,14.842192 58.576557,15.5908824 58.4462463,16.1898438 C58.3159356,16.7888051 58.2507813,17.1794262 58.2507813,17.3617188 C58.2507813,17.583074 58.3223951,17.69375 58.465625,17.69375 C58.6348967,17.69375 58.9148418,17.5570326 59.3054688,17.2835938 C59.8653674,16.8929668 60.5098922,16.2940145 61.2390625,15.4867188 L61.2390625,17.146875 C60.3796832,17.9281289 59.6798204,18.4782536 59.1394531,18.7972656 C58.5990858,19.1162776 58.0815129,19.2757813 57.5867188,19.2757813 C57.17005,19.2757813 56.8901049,19.0739604 56.746875,18.6703125 C56.6557287,18.4098945 56.6101563,17.9997424 56.6101563,17.4398438 C55.4773381,18.6638082 54.5593785,19.2757813 53.85625,19.2757813 C53.2703096,19.2757813 52.7657573,18.9990913 52.3425781,18.4457031 C52.0608881,18.0773393 51.8729533,17.6584971 51.7787717,17.1891707 Z M47.5844971,15.7229248 L48.0260864,13.7679688 C47.5833759,13.2471328 47.2904101,12.9281256 47.1471802,12.8109375 C46.9388458,12.6416658 46.7174938,12.5570313 46.4831177,12.5570313 C45.8579111,12.5570313 45.294664,12.9118454 44.7933594,13.6214844 C44.2920548,14.3311233 44.0414063,15.1286414 44.0414063,16.0140625 C44.0414063,16.5739611 44.1327546,17.0264306 44.3154541,17.3714844 C44.4981536,17.7165382 44.7395452,17.8890625 45.0396362,17.8890625 C45.4312804,17.8890625 45.9011447,17.6028105 46.4492432,17.0302979 C46.827663,16.6010151 47.2060772,16.1652284 47.5844971,15.7229248 Z M56.9421875,15.740625 L57.371875,13.8265625 C57.0072898,13.3578102 56.7208344,13.0355478 56.5125,12.8597656 C56.3041656,12.6839835 56.089324,12.5960938 55.8679688,12.5960938 C55.2559865,12.5960938 54.7026066,12.9216113 54.2078125,13.5726563 C53.6739557,14.2757848 53.4070313,15.1091098 53.4070313,16.0726563 C53.4070313,16.619534 53.4981762,17.0687482 53.6804688,17.4203125 C53.8627613,17.7718768 54.097134,17.9476563 54.3835938,17.9476563 C54.9174506,17.9476563 55.7703066,17.2119865 56.9421875,15.740625 Z M65.2335938,14.2705933 C64.2960891,14.1017285 63.5506538,13.6927462 62.9972656,13.043634 C62.4438774,12.3945219 62.1671875,11.5896288 62.1671875,10.6289307 C62.1671875,9.27862281 62.7042915,8.12634144 63.7785156,7.172052 C64.8527397,6.21776256 66.1645756,5.740625 67.7140625,5.740625 C69.3546957,5.740625 70.7023385,6.26796348 71.7570313,7.32265625 C72.8768285,8.44245352 73.4367188,9.93332402 73.4367188,11.7953125 C73.4367188,13.9177189 72.8833389,15.7080656 71.7765625,17.1664063 C70.7479115,18.5336006 69.5890689,19.2171875 68.3,19.2171875 C67.8703104,19.2171875 67.3494822,19.0739598 66.7375,18.7875 C65.9432252,18.4098939 65.4419281,18.1950523 65.2335938,18.1429688 C64.7127578,18.557603 64.2830746,18.8402947 63.9445313,18.9910522 C63.6059879,19.1418098 63.2218771,19.2171875 62.7921875,19.2171875 C62.2453098,19.2171875 61.971875,19.0029562 61.971875,18.5744873 C61.971875,18.2239403 62.1541648,17.8864193 62.51875,17.5619141 C62.9875023,17.146466 63.6450479,16.8802537 64.4914063,16.763269 C64.777866,16.28292 65.0252594,15.4520363 65.2335938,14.2705933 Z M66.034375,16.7757813 C66.9197961,17.0752619 67.8117143,17.3682277 68.7101563,17.6546875 C69.5565146,17.6546875 70.3117154,17.0817766 70.9757813,15.9359375 C71.6398471,14.7900984 71.971875,13.4880281 71.971875,12.0296875 C71.971875,10.5192633 71.5845091,9.31810342 70.8097656,8.42617188 C70.0350222,7.53424033 68.9901107,7.08828125 67.675,7.08828125 C66.5682236,7.08828125 65.6242227,7.42030918 64.8429688,8.084375 C64.0617148,8.74844082 63.6710938,9.57525547 63.6710938,10.5648438 C63.6710938,11.7627664 64.2895771,12.57005 65.5265625,12.9867188 C65.9171895,11.6585871 66.2166656,10.6657585 66.425,10.0082031 C66.6333344,9.35064775 66.8611967,8.74844023 67.1085938,8.2015625 L67.7335938,8.2015625 C67.8768236,8.2015625 68.0265617,8.21132803 68.1828125,8.23085938 C68.3390633,8.25039072 68.4953117,8.2666666 68.6515625,8.2796875 C68.3911445,8.96979512 68.1177098,9.83567188 67.83125,10.8773438 C67.5968738,11.7627648 67.4015633,12.6091105 67.2453125,13.4164063 L67.6945313,13.4164063 C67.9289074,13.4164063 68.1763008,13.3968752 68.4367188,13.3578125 C68.3716143,13.8916693 67.8703172,14.2302076 66.9328125,14.3734375 C66.6854154,15.336984 66.3859393,16.1377572 66.034375,16.7757813 Z M75.86875,14.9789063 C76.6760457,14.6794256 77.3205705,14.3311218 77.8023438,13.9339844 C78.284117,13.536847 78.525,13.1429707 78.525,12.7523438 C78.525,12.465884 78.3752619,12.3226563 78.0757813,12.3226563 C77.6460916,12.3226563 77.209898,12.5863255 76.7671875,13.1136719 C76.324477,13.6410183 76.0250008,14.2627568 75.86875,14.9789063 Z M83.8671875,13.4164063 C84.5963578,12.3877553 85.0976549,11.6585959 85.3710938,11.2289063 C85.8398461,10.4997359 86.1946603,9.85846631 86.4355469,9.30507813 C86.6764335,8.75168994 86.796875,8.24062734 86.796875,7.771875 C86.796875,7.32916445 86.6796887,7.1078125 86.4453125,7.1078125 C86.0156229,7.1078125 85.481774,8.04530313 84.84375,9.9203125 C84.3880186,11.2744859 84.062501,12.4398389 83.8671875,13.4164063 Z M99.1298096,15.7229248 L99.5713989,13.7679688 C99.1286884,13.2471328 98.8357226,12.9281256 98.6924927,12.8109375 C98.4841583,12.6416658 98.2628063,12.5570313 98.0284302,12.5570313 C97.4032236,12.5570313 96.8399765,12.9118454 96.3386719,13.6214844 C95.8373673,14.3311233 95.5867188,15.1286414 95.5867188,16.0140625 C95.5867188,16.5739611 95.6780671,17.0264306 95.8607666,17.3714844 C96.0434661,17.7165382 96.2848577,17.8890625 96.5849487,17.8890625 C96.9765929,17.8890625 97.4464572,17.6028105 97.9945557,17.0302979 C98.3729755,16.6010151 98.7513897,16.1652284 99.1298096,15.7229248 Z" id="MadDelta" fill="#FFFFFF"></path>
                </g>
            </g>
        </g>
    </g>
</svg>